name Walk4.mot
datacolumns 19
datarows 17
range 2.14400000 2.16000000
endheader

                time	   L_ground_force_vx	   L_ground_force_vy	   L_ground_force_vz	   L_ground_force_px	   L_ground_force_py	   L_ground_force_pz	   R_ground_force_vx	   R_ground_force_vy	   R_ground_force_vz	   R_ground_force_px	   R_ground_force_py	   R_ground_force_pz	   L_ground_torque_x	   L_ground_torque_y	   L_ground_torque_z	   R_ground_torque_x	   R_ground_torque_y	   R_ground_torque_z	
          2.14400000	          3.62703973	         35.25594306	         -2.14533249	          0.23746897	          0.00000000	          0.04759928	          0.00000000	          0.00000000	          0.00000000	          0.00000000	          0.00000000	          0.00000000	          0.00000000	          0.19313097	          0.00000000	          0.00000000	          0.00000000	          0.00000000	
          2.14500000	          2.97988683	         33.15758243	         -2.32933613	          0.23906545	          0.00000000	          0.04843338	          0.00000000	          0.00000000	          0.00000000	          0.00000000	          0.00000000	          0.00000000	          0.00000000	          0.21608731	          0.00000000	          0.00000000	          0.00000000	          0.00000000	
          2.14600000	          2.37733233	         31.18820598	         -2.52302501	          0.24085835	          0.00000000	          0.04936350	          0.00000000	          0.00000000	          0.00000000	          0.00000000	          0.00000000	          0.00000000	          0.00000000	          0.24769660	          0.00000000	          0.00000000	          0.00000000	          0.00000000	
          2.14700000	          1.82918709	         29.25186922	         -2.70366025	          0.24256467	          0.00000000	          0.05031853	          0.00000000	          0.00000000	          0.00000000	          0.00000000	          0.00000000	          0.00000000	          0.00000000	          0.27540868	          0.00000000	          0.00000000	          0.00000000	          0.00000000	
          2.14800000	          1.32956455	         27.20372665	         -2.81769580	          0.24392186	          0.00000000	          0.05147497	          0.00000000	          0.00000000	          0.00000000	          0.00000000	          0.00000000	          0.00000000	          0.00000000	          0.28147596	          0.00000000	          0.00000000	          0.00000000	          0.00000000	
          2.14900000	          0.87591761	         24.80168520	         -2.80620323	          0.24476952	          0.00000000	          0.05290645	          0.00000000	          0.00000000	          0.00000000	          0.00000000	          0.00000000	          0.00000000	          0.00000000	          0.25653830	          0.00000000	          0.00000000	          0.00000000	          0.00000000	
          2.15000000	          0.48242279	         21.73515418	         -2.62880560	          0.24525528	          0.00000000	          0.05448146	          0.00000000	          0.00000000	          0.00000000	          0.00000000	          0.00000000	          0.00000000	          0.00000000	          0.20782590	          0.00000000	          0.00000000	          0.00000000	          0.00000000	
          2.15100000	          0.17601125	         17.77105286	         -2.26560842	          0.24586688	          0.00000000	          0.05606553	          0.00000000	          0.00000000	          0.00000000	          0.00000000	          0.00000000	          0.00000000	          0.00000000	          0.14880736	          0.00000000	          0.00000000	          0.00000000	          0.00000000	
          2.15200000	         -0.01933340	         13.01453264	         -1.73515799	          0.24705041	          0.00000000	          0.05758863	          0.00000000	          0.00000000	          0.00000000	          0.00000000	          0.00000000	          0.00000000	          0.00000000	          0.09085564	          0.00000000	          0.00000000	          0.00000000	          0.00000000	
          2.15300000	         -0.10533497	          8.11658238	         -1.12996213	          0.24891842	          0.00000000	          0.05913334	          0.00000000	          0.00000000	          0.00000000	          0.00000000	          0.00000000	          0.00000000	          0.00000000	          0.04361722	          0.00000000	          0.00000000	          0.00000000	          0.00000000	
          2.15400000	          0.00000000	          0.00000000	          0.00000000	          0.00000000	          0.00000000	          0.00000000	          0.00000000	          0.00000000	          0.00000000	          0.00000000	          0.00000000	          0.00000000	          0.00000000	          0.00000000	          0.00000000	          0.00000000	          0.00000000	          0.00000000	
          2.15500000	          0.00000000	          0.00000000	          0.00000000	          0.00000000	          0.00000000	          0.00000000	          0.00000000	          0.00000000	          0.00000000	          0.00000000	          0.00000000	          0.00000000	          0.00000000	          0.00000000	          0.00000000	          0.00000000	          0.00000000	          0.00000000	
          2.15600000	          0.00000000	          0.00000000	          0.00000000	          0.00000000	          0.00000000	          0.00000000	          0.00000000	          0.00000000	          0.00000000	          0.00000000	          0.00000000	          0.00000000	          0.00000000	          0.00000000	          0.00000000	          0.00000000	          0.00000000	          0.00000000	
          2.15700000	          0.00000000	          0.00000000	          0.00000000	          0.00000000	          0.00000000	          0.00000000	          0.00000000	          0.00000000	          0.00000000	          0.00000000	          0.00000000	          0.00000000	          0.00000000	          0.00000000	          0.00000000	          0.00000000	          0.00000000	          0.00000000	
          2.15800000	          0.00000000	          0.00000000	          0.00000000	          0.00000000	          0.00000000	          0.00000000	          0.00000000	          0.00000000	          0.00000000	          0.00000000	          0.00000000	          0.00000000	          0.00000000	          0.00000000	          0.00000000	          0.00000000	          0.00000000	          0.00000000	
          2.15900000	          0.00000000	          0.00000000	          0.00000000	          0.00000000	          0.00000000	          0.00000000	          0.00000000	          0.00000000	          0.00000000	          0.00000000	          0.00000000	          0.00000000	          0.00000000	          0.00000000	          0.00000000	          0.00000000	          0.00000000	          0.00000000	
          2.16000000	          0.00000000	          0.00000000	          0.00000000	          0.00000000	          0.00000000	          0.00000000	          0.00000000	          0.00000000	          0.00000000	          0.00000000	          0.00000000	          0.00000000	          0.00000000	          0.00000000	          0.00000000	          0.00000000	          0.00000000	          0.00000000	
